<svg id="visual" viewBox="0 0 900 600" width="900" height="600" xmlns="http://www.w3.org/2000/svg" xmlns:xlink="http://www.w3.org/1999/xlink" version="1.1"><path d="M0 241L13.7 230C27.3 219 54.7 197 82 178C109.3 159 136.7 143 163.8 145C191 147 218 167 245.2 182C272.3 197 299.7 207 327 207C354.3 207 381.7 197 409 182C436.3 167 463.7 147 491 154C518.3 161 545.7 195 573 193C600.3 191 627.7 153 654.8 131C682 109 709 103 736.2 131C763.3 159 790.7 221 818 243C845.3 265 872.7 247 886.3 238L900 229L900 0L886.3 0C872.7 0 845.3 0 818 0C790.7 0 763.3 0 736.2 0C709 0 682 0 654.8 0C627.7 0 600.3 0 573 0C545.7 0 518.3 0 491 0C463.7 0 436.3 0 409 0C381.7 0 354.3 0 327 0C299.7 0 272.3 0 245.2 0C218 0 191 0 163.8 0C136.7 0 109.3 0 82 0C54.7 0 27.3 0 13.7 0L0 0Z" fill="#fce53d"></path><path d="M0 283L13.7 276C27.3 269 54.7 255 82 242C109.3 229 136.7 217 163.8 215C191 213 218 221 245.2 232C272.3 243 299.7 257 327 264C354.3 271 381.7 271 409 254C436.3 237 463.7 203 491 208C518.3 213 545.7 257 573 258C600.3 259 627.7 217 654.8 196C682 175 709 175 736.2 207C763.3 239 790.7 303 818 320C845.3 337 872.7 307 886.3 292L900 277L900 227L886.3 236C872.7 245 845.3 263 818 241C790.7 219 763.3 157 736.2 129C709 101 682 107 654.8 129C627.7 151 600.3 189 573 191C545.7 193 518.3 159 491 152C463.7 145 436.3 165 409 180C381.7 195 354.3 205 327 205C299.7 205 272.3 195 245.2 180C218 165 191 145 163.8 143C136.7 141 109.3 157 82 176C54.7 195 27.3 217 13.7 228L0 239Z" fill="#ffcf41"></path><path d="M0 349L13.7 351C27.3 353 54.7 357 82 345C109.3 333 136.7 305 163.8 304C191 303 218 329 245.2 345C272.3 361 299.7 367 327 372C354.3 377 381.7 381 409 357C436.3 333 463.7 281 491 283C518.3 285 545.7 341 573 354C600.3 367 627.7 337 654.8 309C682 281 709 255 736.2 277C763.3 299 790.7 369 818 400C845.3 431 872.7 423 886.3 419L900 415L900 275L886.3 290C872.7 305 845.3 335 818 318C790.7 301 763.3 237 736.2 205C709 173 682 173 654.8 194C627.7 215 600.3 257 573 256C545.7 255 518.3 211 491 206C463.7 201 436.3 235 409 252C381.7 269 354.3 269 327 262C299.7 255 272.3 241 245.2 230C218 219 191 211 163.8 213C136.7 215 109.3 227 82 240C54.7 253 27.3 267 13.7 274L0 281Z" fill="#ffba49"></path><path d="M0 415L13.7 414C27.3 413 54.7 411 82 408C109.3 405 136.7 401 163.8 403C191 405 218 413 245.2 421C272.3 429 299.7 437 327 449C354.3 461 381.7 477 409 451C436.3 425 463.7 357 491 349C518.3 341 545.7 393 573 416C600.3 439 627.7 433 654.8 411C682 389 709 351 736.2 363C763.3 375 790.7 437 818 470C845.3 503 872.7 507 886.3 509L900 511L900 413L886.3 417C872.7 421 845.3 429 818 398C790.7 367 763.3 297 736.2 275C709 253 682 279 654.8 307C627.7 335 600.3 365 573 352C545.7 339 518.3 283 491 281C463.7 279 436.3 331 409 355C381.7 379 354.3 375 327 370C299.7 365 272.3 359 245.2 343C218 327 191 301 163.8 302C136.7 303 109.3 331 82 343C54.7 355 27.3 351 13.7 349L0 347Z" fill="#fda652"></path><path d="M0 601L13.7 601C27.3 601 54.7 601 82 601C109.3 601 136.7 601 163.8 601C191 601 218 601 245.2 601C272.3 601 299.7 601 327 601C354.3 601 381.7 601 409 601C436.3 601 463.7 601 491 601C518.3 601 545.7 601 573 601C600.3 601 627.7 601 654.8 601C682 601 709 601 736.2 601C763.3 601 790.7 601 818 601C845.3 601 872.7 601 886.3 601L900 601L900 509L886.3 507C872.7 505 845.3 501 818 468C790.7 435 763.3 373 736.2 361C709 349 682 387 654.8 409C627.7 431 600.3 437 573 414C545.7 391 518.3 339 491 347C463.7 355 436.3 423 409 449C381.7 475 354.3 459 327 447C299.7 435 272.3 427 245.2 419C218 411 191 403 163.8 401C136.7 399 109.3 403 82 406C54.7 409 27.3 411 13.7 412L0 413Z" fill="#f6945c"></path></svg>