<svg width="61" height="232" viewBox="0 0 61 232" fill="none" xmlns="http://www.w3.org/2000/svg">
<path d="M5.06752 204.007C5.06752 197.749 7.87095 194.729 10.9634 187.517C11.753 185.676 17.577 166.503 17.577 166.503H44.5433C44.5433 166.503 49.2251 184.831 50.1125 186.323C53.8347 192.602 57.0527 197.175 57.0527 204.007C57.0527 218.364 45.415 230 31.0601 230C16.7037 230 5.06752 218.362 5.06752 204.007Z" stroke="black" stroke-width="3.1411" stroke-miterlimit="10" stroke-linecap="round" stroke-linejoin="round"/>
<path d="M31.0596 167.147V185.899Z" fill="black"/>
<path d="M31.0596 167.147V185.899" stroke="black" stroke-width="3.1411" stroke-miterlimit="10" stroke-linecap="round" stroke-linejoin="round"/>
<path d="M21.6827 185.899H40.4351Z" fill="black"/>
<path d="M21.6827 185.899H40.4351" stroke="black" stroke-width="3.1411" stroke-miterlimit="10" stroke-linecap="round" stroke-linejoin="round"/>
<path d="M18.2437 148.975C18.2437 143.887 23.9778 139.761 31.0515 139.761C38.1253 139.761 43.8594 143.887 43.8594 148.975H18.2437Z" fill="black" stroke="black" stroke-width="2.66365" stroke-miterlimit="10" stroke-linecap="round" stroke-linejoin="round"/>
<path d="M47.5099 2.29889C47.5099 7.38747 37.4801 8.0002 30.4063 8.0002C23.3325 8.0002 15.2031 7.38759 15.2031 2.299L47.5099 2.29889Z" fill="black" stroke="black" stroke-width="2.66365" stroke-miterlimit="10" stroke-linecap="round" stroke-linejoin="round"/>
<path d="M43.6401 154.959L18.4799 160.409Z" fill="black"/>
<path d="M43.6401 154.959L18.4799 160.409" stroke="black" stroke-width="3.08613" stroke-miterlimit="10" stroke-linecap="round" stroke-linejoin="round"/>
<path d="M27.604 153.247L18.5262 155.101Z" fill="black"/>
<path d="M27.604 153.247L18.5262 155.101" stroke="black" stroke-width="3.1411" stroke-miterlimit="10" stroke-linecap="round" stroke-linejoin="round"/>
<path d="M43.5918 160.268L34.514 162.121Z" fill="black"/>
<path d="M43.5918 160.268L34.514 162.121" stroke="black" stroke-width="3.1411" stroke-miterlimit="10" stroke-linecap="round" stroke-linejoin="round"/>
<path d="M30.9126 138.763L30.9126 8.00001" stroke="black" stroke-width="1.01355"/>
</svg>
